# xmcd
# 
# Track frame offsets:
#     150
#     19733
#     37709
#     49124
#     68721
#     77524
#     94150
#     111641
#     130482
#     147118
#     160910
#     176955
#     177786
#     197305
#     211696
#     230732
#     245260
#     258556
# 
# Disc length: 4163
# 
# Revision: 0
# Processed by: cddbd v1.5.2PL0 Copyright (c) Steve Scherf et al.
# Submitted via: fre:ac v1.0.31
# 
DISCID=f3104112
DTITLE=Various Artist - The Best Country Ballads
DYEAR=1998
DGENRE=Country
TTITLE0=The Mavericks - Dance The Night Away
TTITLE1=Billy Swan - I Can Help
TTITLE2=Roy Orbison - Dream Baby
TTITLE3=Jimmy Nail - Crocodile Shoes
TTITLE4=The Everly Brothers - Crying in the Rain
TTITLE5=Emmy Lou Harris - Here, There and Eveyrwhere
TTITLE6=Linda Ronstadt - Blue Bayou
TTITLE7=Nanci Griffith - From A Distance
TTITLE8=Don Mclean - Crying
TTITLE9=Glen Campbell - Wichita Lineman
TTITLE10=Joe South - Games People Play
TTITLE11=Elvis Costello - A Good Year For The Roses
TTITLE12=Willie Nelson - Funny How Time Slips Away
TTITLE13=Bobbie Gentry - Ode to Billie Joe
TTITLE14=The Bellamy Brothers - If I Said You Have A Beautiful Body
TTITLE15=Mindy Mccready - Oh Romeo
TTITLE16=Jo Dee Messina - I'm Alright
TTITLE17=Dr Hook - When You're In Love With A Beautiful Woman
EXTD=
EXTT0=
EXTT1=
EXTT2=
EXTT3=
EXTT4=
EXTT5=
EXTT6=
EXTT7=
EXTT8=
EXTT9=
EXTT10=
EXTT11=
EXTT12=
EXTT13=
EXTT14=
EXTT15=
EXTT16=
EXTT17=
PLAYORDER=
